<mxfile host="app.diagrams.net" agent="Mozilla/5.0 (Windows NT 10.0; Win64; x64) AppleWebKit/537.36 (KHTML, like Gecko) Chrome/135.0.0.0 Safari/537.36 Edg/135.0.0.0" version="26.2.12">
  <diagram name="第 1 页" id="JtDYMbEKJYv2PruXJ-ki">
    <mxGraphModel dx="979" dy="519" grid="1" gridSize="10" guides="1" tooltips="1" connect="1" arrows="1" fold="1" page="1" pageScale="1" pageWidth="827" pageHeight="1169" math="0" shadow="0">
      <root>
        <mxCell id="0" />
        <mxCell id="1" parent="0" />
        <mxCell id="FWjyikGKuGbgLXf5Dup_-12" value="" style="rounded=0;whiteSpace=wrap;html=1;" vertex="1" parent="1">
          <mxGeometry x="670" y="270" width="140" height="130" as="geometry" />
        </mxCell>
        <mxCell id="FWjyikGKuGbgLXf5Dup_-1" value="RV1106" style="rounded=0;whiteSpace=wrap;html=1;" vertex="1" parent="1">
          <mxGeometry x="440" y="180" width="190" height="170" as="geometry" />
        </mxCell>
        <mxCell id="FWjyikGKuGbgLXf5Dup_-3" value="核心板&lt;div&gt;&lt;br&gt;&lt;/div&gt;&lt;div&gt;&lt;br&gt;&lt;/div&gt;&lt;div&gt;&lt;br&gt;&lt;/div&gt;&lt;div&gt;&lt;br&gt;&lt;/div&gt;&lt;div&gt;&lt;br&gt;&lt;/div&gt;&lt;div&gt;&lt;br&gt;&lt;/div&gt;&lt;div&gt;&lt;br&gt;&lt;/div&gt;&lt;div&gt;&lt;br&gt;&lt;/div&gt;&lt;div&gt;&lt;br&gt;&lt;/div&gt;&lt;div&gt;&lt;br&gt;&lt;/div&gt;" style="rounded=0;whiteSpace=wrap;html=1;align=left;" vertex="1" parent="1">
          <mxGeometry x="240" y="180" width="130" height="170" as="geometry" />
        </mxCell>
        <mxCell id="FWjyikGKuGbgLXf5Dup_-2" value="mcu" style="rounded=0;whiteSpace=wrap;html=1;" vertex="1" parent="1">
          <mxGeometry x="310" y="280" width="50" height="60" as="geometry" />
        </mxCell>
        <mxCell id="FWjyikGKuGbgLXf5Dup_-4" value="4G模块" style="rounded=0;whiteSpace=wrap;html=1;" vertex="1" parent="1">
          <mxGeometry x="310" y="190" width="50" height="60" as="geometry" />
        </mxCell>
        <mxCell id="FWjyikGKuGbgLXf5Dup_-5" value="CT取电板MCU控制" style="rounded=0;whiteSpace=wrap;html=1;" vertex="1" parent="1">
          <mxGeometry x="258" y="420" width="110" height="90" as="geometry" />
        </mxCell>
        <mxCell id="FWjyikGKuGbgLXf5Dup_-7" value="" style="endArrow=classic;startArrow=classic;html=1;rounded=0;exitX=0.75;exitY=0;exitDx=0;exitDy=0;" edge="1" parent="1" source="FWjyikGKuGbgLXf5Dup_-5">
          <mxGeometry width="50" height="50" relative="1" as="geometry">
            <mxPoint x="290" y="390" as="sourcePoint" />
            <mxPoint x="340" y="340" as="targetPoint" />
          </mxGeometry>
        </mxCell>
        <mxCell id="FWjyikGKuGbgLXf5Dup_-9" value="前视（sc200ai）" style="rounded=0;whiteSpace=wrap;html=1;" vertex="1" parent="1">
          <mxGeometry x="690" y="180" width="60" height="50" as="geometry" />
        </mxCell>
        <mxCell id="FWjyikGKuGbgLXf5Dup_-10" value="下视（sc200ai）" style="rounded=0;whiteSpace=wrap;html=1;" vertex="1" parent="1">
          <mxGeometry x="740" y="280" width="60" height="50" as="geometry" />
        </mxCell>
        <mxCell id="FWjyikGKuGbgLXf5Dup_-11" value="后视（sc200ai）" style="rounded=0;whiteSpace=wrap;html=1;" vertex="1" parent="1">
          <mxGeometry x="740" y="340" width="60" height="50" as="geometry" />
        </mxCell>
        <mxCell id="FWjyikGKuGbgLXf5Dup_-13" value="mipi switch" style="rounded=0;whiteSpace=wrap;html=1;" vertex="1" parent="1">
          <mxGeometry x="680" y="280" width="40" height="110" as="geometry" />
        </mxCell>
        <mxCell id="FWjyikGKuGbgLXf5Dup_-14" value="" style="endArrow=classic;startArrow=classic;html=1;rounded=0;entryX=0;entryY=0.5;entryDx=0;entryDy=0;" edge="1" parent="1" target="FWjyikGKuGbgLXf5Dup_-9">
          <mxGeometry width="50" height="50" relative="1" as="geometry">
            <mxPoint x="630" y="210" as="sourcePoint" />
            <mxPoint x="680" y="160" as="targetPoint" />
          </mxGeometry>
        </mxCell>
      </root>
    </mxGraphModel>
  </diagram>
</mxfile>
